<svg width="50" height="50" viewBox="0 0 50 50" fill="none" xmlns="http://www.w3.org/2000/svg">
              <title>facebook icon</title>
              <circle cx="25" cy="25" r="25" fill="white"></circle>
              <path d="M22.1538 18.8075C22.1538 19.3662 22.1538 21.86 22.1538 21.86H19.9668V25.5927H22.1538V36.6848H26.6464V25.593H29.6612C29.6612 25.593 29.9435 23.8032 30.0804 21.8463C29.688 21.8463 26.6634 21.8463 26.6634 21.8463C26.6634 21.8463 26.6634 19.6747 26.6634 19.2941C26.6634 18.9127 27.1532 18.3996 27.6374 18.3996C28.1206 18.3996 29.1405 18.3996 30.0851 18.3996C30.0851 17.8914 30.0851 16.1354 30.0851 14.5137C28.8241 14.5137 27.3894 14.5137 26.757 14.5137C22.0428 14.5134 22.1538 18.2498 22.1538 18.8075Z" fill="#C58FFF"></path>
            </svg>