<svg width="50" height="50" viewBox="0 0 50 50" fill="none" xmlns="http://www.w3.org/2000/svg">
              <title>instagram icon</title>
              <circle cx="25" cy="25" r="25" fill="white"></circle>
              <path d="M20.1111 14C16.7378 14 14 16.7378 14 20.1111V29.8889C14 33.2622 16.7378 36 20.1111 36H29.8889C33.2622 36 36 33.2622 36 29.8889V20.1111C36 16.7378 33.2622 14 29.8889 14H20.1111ZM32.3333 16.4444C33.0056 16.4444 33.5556 16.9944 33.5556 17.6667C33.5556 18.3389 33.0056 18.8889 32.3333 18.8889C31.6611 18.8889 31.1111 18.3389 31.1111 17.6667C31.1111 16.9944 31.6611 16.4444 32.3333 16.4444ZM25 18.8889C28.3733 18.8889 31.1111 21.6267 31.1111 25C31.1111 28.3733 28.3733 31.1111 25 31.1111C21.6267 31.1111 18.8889 28.3733 18.8889 25C18.8889 21.6267 21.6267 18.8889 25 18.8889ZM25 21.3333C22.9711 21.3333 21.3333 22.9711 21.3333 25C21.3333 27.0289 22.9711 28.6667 25 28.6667C27.0289 28.6667 28.6667 27.0289 28.6667 25C28.6667 22.9711 27.0289 21.3333 25 21.3333Z" fill="#C58FFF"></path>
            </svg>