<svg width="50" height="50" viewBox="0 0 50 50" fill="none" xmlns="http://www.w3.org/2000/svg">
              <title>linkedin icon</title>
              <circle cx="25" cy="25" r="25" fill="white"></circle>
              <g clip-path="url(#clip0_1028_993)">
                <path d="M20.5256 19.667L16.3965 19.667L16.3965 33.0004L20.5256 33.0004L20.5256 19.667Z" fill="#C58FFF"></path>
                <path d="M18.4418 17.9206C17.0932 17.9206 16 16.8189 16 15.4603C16 14.1015 17.0933 13 18.4418 13C19.7903 13 20.8835 14.1015 20.8835 15.4603C20.8835 16.8191 19.7902 17.9206 18.4418 17.9206Z" fill="#C58FFF"></path>
                <path d="M35.9999 32.9999L31.8907 32.9999L31.8907 26.001C31.8907 24.0814 31.1612 23.0098 29.6425 23.0098C27.9897 23.0098 27.1262 24.1258 27.1262 26.001L27.1262 32.9999L23.166 32.9999L23.166 19.6665L27.1264 19.6665L27.1264 21.4623C27.1264 21.4623 28.3176 19.2598 31.1463 19.2598C33.9751 19.2598 36 20.9861 36 24.5574L35.9999 32.9999Z" fill="#C58FFF"></path>
              </g>
              <defs>
                <clipPath id="clip0_1028_993">
                  <rect width="20" height="20" fill="white" transform="translate(16 13)"></rect>
                </clipPath>
              </defs>
            </svg>