<svg width="50" height="50" viewBox="0 0 50 50" fill="none" xmlns="http://www.w3.org/2000/svg">
              <title>twitter icon</title>
              <circle cx="25" cy="25" r="25" fill="white"></circle>
              <path fill-rule="evenodd" clip-rule="evenodd" d="M37.1704 17.0782C36.2177 17.6029 35.1638 17.9853 34.0426 18.1918C33.145 17.2985 31.8659 16.7432 30.4491 16.7432C27.7302 16.7432 25.526 18.7976 25.526 21.3323C25.526 21.6918 25.5688 22.0437 25.6531 22.3771C21.5617 22.1859 17.933 20.3594 15.5051 17.5815C15.0808 18.2607 14.8388 19.0485 14.8388 19.8898C14.8388 21.4822 15.7073 22.8881 17.0292 23.7111C16.222 23.6866 15.4623 23.4801 14.799 23.1359C14.799 23.1558 14.799 23.1741 14.799 23.194C14.799 25.4182 16.4962 27.2738 18.7479 27.6945C18.3358 27.8 17.8993 27.8551 17.4505 27.8551C17.1334 27.8551 16.8255 27.8275 16.5238 27.774C17.1503 29.5959 18.9685 30.9237 21.1237 30.9619C19.4387 32.1918 17.3157 32.9261 15.0088 32.9261C14.6121 32.9261 14.22 32.9047 13.834 32.8634C16.0137 34.1637 18.6024 34.9239 21.381 34.9239C30.4383 34.9239 35.3905 27.9285 35.3905 21.8647C35.3905 21.6643 35.3844 21.467 35.3752 21.2696C36.3372 20.6225 37.172 19.8149 37.8322 18.8955C36.9499 19.2611 36.0002 19.5058 35.0045 19.6175C36.0216 19.0485 36.8013 18.149 37.1704 17.0782Z" fill="#C58FFF"></path>
            </svg>