<svg height="610" viewBox="0 0 345 610" width="345" xmlns="http://www.w3.org/2000/svg" xmlns:xlink="http://www.w3.org/1999/xlink"><mask id="a" fill="#fff"><path d="m.296.487h35.251v48.139h-35.251z" fill="#fff" fill-rule="evenodd"/></mask><g fill="none" fill-rule="evenodd"><path d="m210.636 570.443-3.835 19.662-3.33 18.021 17.478-9.332 12.986-15.304-.112-20.736z" fill="#5cffe4" transform="translate(2 -1)"/><path d="m231.588 582.838c-.042.066-.053.135-.03.203.013-.017.026-.03.039-.044-.005-.047-.009-.098-.009-.159" fill="#000" transform="translate(2 -.41)"/><path d="m35.361 16.595c-.03-4.985-.053-9.97-.082-14.955-.011-2.02-4.618-1.091-4.607.528.023 4.13.044 8.256.065 12.385.015 2.389.028 4.78.04 7.171 0 .083-.042.535-.038.854.174-.287.745-.515.282-.135-.098.08-.186.186-.273.294.008.07.015.14.036.154-.045-.033-.06-.074-.072-.11-.091.115-.178.235-.264.339l-9.898 11.664c-.556.653-1.112 1.31-1.668 1.964-.266.317-.679.657-.596.64-1.347.8-2.787 1.48-4.163 2.216-2.89 1.543-5.78 3.087-8.67 4.628 2.163-11.645 4.372-23.277 6.638-34.905.362-1.859-4.28-1.142-4.609.528-2.447 12.555-4.838 25.108-7.161 37.686-.343 1.845 3.063.86 3.748.494 3.827-2.044 7.651-4.086 11.48-6.129 2.82-1.505 5.617-2.585 7.69-5.025 3.414-4.028 6.828-8.05 10.243-12.074.636-.749 1.7-1.666 1.909-2.632.363-1.681-.021-3.867-.03-5.58" fill="#000" mask="url(#a)" transform="translate(202.848 559.85)"/><g transform="translate(2 -.41)"><path d="m169.709 556.413-4.264 18.404-2.148 17.353 16.108-9.167 11.769-14.672.011-18.939" fill="#5cffe4"/><path d="m189.11 568.074c-.008.008-.016.019-.025.027.038-.196.351-.348.025-.027m4.377-5.152c.004-4.59.004-9.182.008-13.774 0-2.114-4.615-1.24-4.617.484l-.006 11.575c-.003 2.11-.005 4.22-.005 6.33 0 .154-.082.59 0 .738-.004-.009-.004.05-.004.108-.12.154-.243.304-.361.448-3.011 3.753-6.022 7.503-9.032 11.258-.487.607-.994 1.2-1.463 1.824-.108.142-.222.282-.336.419-1.307.806-2.683 1.524-4.017 2.283-2.56 1.46-5.123 2.916-7.683 4.375.524-4.24 1.05-8.48 1.575-12.717.54-4.368 1.822-8.666 2.814-12.945.554-2.387 1.105-4.774 1.657-7.159.444-1.922-4.213-1.264-4.62.486-1.192 5.15-2.382 10.303-3.576 15.45-.969 4.18-1.36 8.42-1.888 12.677-.315 2.544-.628 5.09-.945 7.633-.235 1.9 2.972 1.04 3.771.581 3.482-1.979 6.96-3.96 10.44-5.939 2.609-1.486 5.302-2.588 7.186-4.936 3.07-3.83 6.14-7.654 9.21-11.478.592-.74 1.672-1.721 1.89-2.666.349-1.51.002-3.514.002-5.055" fill="#000"/><path d="m94.651 473.074-1.702 14.137 2.92 13.559 13.296 3.647 13.818-11.345-11.729-12.097.122-8.485" fill="#5cffe4"/><path d="m125.086 492.06-11.496-11.857c.038-2.628.076-5.258.116-7.89.034-2.393-4.626-1.717-4.656.351l-.107 7.393c-.011.71-.115 1.404.293 2.02.394.598 1.087 1.122 1.586 1.634l9.203 9.49c-3.738 3.07-7.476 6.14-11.214 9.208l-10.797-2.964c-.8-3.724-1.602-7.447-2.406-11.172-.101-.478-.211-.958-.308-1.44.004-.025.002-.038.01-.07.079-.289.076-.625.11-.925.288-2.377.573-4.753.86-7.132.231-1.934.466-3.87.698-5.807.282-2.34-4.403-1.725-4.653.35-.497 4.11-.99 8.22-1.484 12.33-.412 3.417.784 6.76 1.503 10.1l1.228 5.704c.091.423.573.823.97.933 4.358 1.194 8.7 2.45 13.073 3.585 2.247.586 3.488-.78 5.05-2.059 2.297-1.884 4.588-3.77 6.884-5.651l4.958-4.072c.514-.42 1.216-1.406.58-2.06" fill="#000"/><path d="m211.759 343.949-6.182-14.708-8.017-13.649-5.11-14.956-6.008-14.696-1.226-16.038-4.345-15.161-4.818-13.649-2.404 14.081-5.877 14.617-4.381 15.013-6.374 14.438-12.248 9.801-13.647 6.214-4.543 1.249-8.825 13.372-9.524 12.802-9.191 13.063-10.137 12.457 2.141 17.468-.634 17.492-.765 17.502 3.004 17.378-2.389 17.559 1.636 18.116 22.753-2.488.165-16.404 2.03-17.153 1.328-17.18-.607-17.275 1.826-16.535 11.466 10.138 12.598 9.839 2 16.759.99 16.812-.227 16.891 1.922 16.019 9.899 1.131 2.423 16.083.811 16.947 2.373 16.803 2.103 16.842-.031 17.897 13.67-6.172 13.731-3.317 1.146-16.321-1.08-16.252.366-16.178 1.053-16.159 2.034-16.063.885 17.101 3.022 16.935.315 17.214 3.272 16.909 1.871 17.062 1.863 15.962 13.71-3.277 13.22-5.988 3.225-15.909-1.62-16.913 2.028-16.734 1.858-16.749-1.476-16.915 1.675-16.757-.207-16.861 1.34-16.759-.159-18.083-4.255-17.624-4.29-17.7-8.833-15.966z" fill="#5cffe4"/><path d="m238.644 435.682c-.247 3.106-.67 6.246-.651 9.362.03 4.666.116 9.334.171 14 .02 1.427.047 1.55-.057 2.584-.228 2.209-.442 4.418-.664 6.628-.325 3.253-1.004 6.657-.888 9.928.157 4.488.787 9.008 1.178 13.484.273 3.119-.006 5.165-.402 8.713-.4 3.63-.784 7.264-1.21 10.888-.52 4.442-1.073 8.88-1.612 13.317-.353 2.91-.237 5.26.044 8.197.374 3.905 1.292 8.141 1.165 12.067-.025-.103-.167.804-.2.969-.219 1.061-.432 2.125-.648 3.186l-1.535 7.583c-.24 1.193-.484 2.385-.725 3.578-3.936 1.818-11.344 5.152-13.336 5.664-1.992.51-3.038.727-4.556 1.09-1.552.37-3.106.74-4.656 1.113-1.429-12.489-2.296-25.189-4.682-37.525-.728-3.761-1.78-7.603-2.21-11.413-.347-3.099-.127-6.363-.186-9.48-.048-2.771.144-5.666-.247-8.412-.599-4.2-1.497-8.374-2.241-12.55-1.23-6.88-1.203-13.92-1.563-20.892-.061-1.212-3.387-3.645-3.535-2.484-1.361 10.746-3.613 24.816-4.129 35.643-.26 5.395-.45 10.875-.378 16.275.07 5.315.803 10.628 1.042 15.937.013.274.026.427.036.412-.01.463-.065.932-.097 1.395-.123 1.766-.25 3.533-.372 5.298-.201 2.87-.404 5.738-.607 8.61-4.137.902-8.448 1.638-12.37 3.08-3.565 1.31-7.03 3.031-10.488 4.685.057-5.358.304-10.774.01-16.106-.306-5.558-1.34-11.18-2.063-16.702-.717-5.482-1.639-10.941-2.313-16.427-.677-5.51-.548-11.163-.867-16.705-.326-5.676-1.62-11.395-2.47-17.021-.048-.326-.619-.459-.85-.486-3.033-.345-6.065-.692-9.097-1.038-.704-5.658-1.928-11.489-1.85-17.182.087-6.493.347-12.98-.036-19.461-.401-6.808-.847-13.514-1.653-20.28-.262-2.182-.522-4.363-.78-6.545-.1-.837-.002-2.136-.478-2.859-.575-.87-2.148-1.676-2.953-2.306l-5.351-4.182c-5.455-4.26-10.56-8.892-15.747-13.478-.82-.723-4.292-.072-4.431 1.188-.605 5.484-1.55 11.03-1.825 16.535-.287 5.761.597 11.599.586 17.37-.002.146.002.127.004.079-.002.03-.002.027-.002.082-.017.423-.065.848-.1 1.27l-.443 5.753c-.246 3.19-.446 6.39-.738 9.576-.516 5.613-1.402 11.19-1.977 16.797-.537 5.247-.268 10.664-.266 15.962-6.072.662-12.146 1.328-18.218 1.99-.54-5.692-1.36-11.443-1.544-17.149-.004-.186.011-.418.117-1.194.24-1.772.484-3.544.723-5.318.463-3.393.957-6.782 1.387-10.18.224-1.771-.26-3.469-.565-5.23-.649-3.748-1.298-7.497-1.943-11.245-.911-5.258.026-10.924.258-16.229.241-5.537.427-11.076.628-16.613.197-5.433-.632-10.639-1.296-16.047-.19-1.545-.239-3.194-.58-4.719-.041-.188-.071-.42-.088-.64.053-.083.129-.186.262-.309 2.535-2.452 4.613-5.67 6.837-8.404 3.474-4.266 6.559-8.774 9.726-13.275 3.579-5.086 7.34-10.044 11.053-15.036 3.313-4.452 6.211-9.243 9.253-13.886 5.912-1.79 11.514-4.368 17.081-7.086 2.74-1.34 5.095-3.77 7.465-5.666 2.01-1.612 5.182-3.311 6.512-5.567 1.966-3.332 3.232-7.322 4.793-10.86.979-2.214 1.74-4.246 2.416-6.567 1.958-6.713 3.962-13.087 6.565-19.565 1.163-2.892 2.547-5.67 3.074-8.744.152-.905.308-1.812.46-2.72 1.278 3.72 2.506 7.451 3.595 11.244.894 3.123 2.228 6.385 2.643 9.613.577 4.48.693 9.064 1.038 13.565.224 2.922 1.554 5.385 2.666 8.1 1.24 3.044 2.6 6.065 3.702 9.16 1.507 4.241 2.91 8.524 4.365 12.78 1 2.929 2.846 5.497 4.408 8.155 1.778 3.025 3.677 5.94 5.036 9.173l5.288 12.588c.006.015.021.02.03.03.02.07.059.135.12.198l8.085 8.779c1.3 1.414 2.676 2.784 3.917 4.25.216.255.23.253.222.236.01.015.032.053.098.152.389.596.697 1.266 1.044 1.888l6.937 12.54c1.397 2.526 1.74 5.553 2.416 8.342 1.871 7.717 3.736 15.43 5.599 23.146.674 2.793 1.232 5.09 1.255 7.932l.125 14.104c.013 1.269.017.987-.1 2.425-.187 2.364-.376 4.73-.566 7.095zm5.184-19.68c-.032-3.542.184-6.948-.647-10.383l-3.607-14.946c-.98-4.055-1.966-8.105-2.949-12.156-.452-1.873-.72-3.956-1.395-5.763-.448-1.206-1.284-2.366-1.907-3.491-2.275-4.116-4.27-8.67-6.937-12.543-2.474-3.588-6.12-6.713-9.072-9.916l-3.309-3.59c-2.602-6.21-4.915-12.524-8.327-18.334-1.912-3.25-4.267-6.493-5.827-9.926-1.71-3.761-2.734-8.002-4.07-11.912-.903-2.644-1.922-5.198-2.979-7.786-1.313-3.21-3.34-6.69-4.072-10.074-.877-4.051-.661-8.647-.979-12.778-.23-3.02-.923-5.516-1.767-8.455-2.28-7.951-4.88-15.67-7.632-23.474-.455-1.285-4.383-.184-4.582.96-.78 4.569-1.186 9.387-2.368 13.865-1.133 4.29-3.376 8.518-5.031 12.64-1.554 3.865-2.552 7.925-3.721 11.92-1.114 3.825-2.379 7.187-3.99 10.834-1.16 2.63-2.526 5.249-3.51 7.949-.08.218-.185.423-.28.636-.738.522-1.428 1.15-2.13 1.71l-7.126 5.705c-.736.587-1.658 1.148-2.3 1.841-.03.03-.028.038-.051.064-.028.012-.036.014-.07.027-2.61 1.112-5.17 2.353-7.75 3.529l-3.63 1.65c-.375.172-.751.333-1.121.51l-.189.095c-1.887.55-4.76.766-6.114 2.267-1.467 1.63-2.556 3.873-3.759 5.7-4.67 7.076-9.759 13.752-14.706 20.636-2.973 4.138-5.768 8.413-8.8 12.506-2.667 3.604-5.663 6.996-8.494 10.473-.8.98-1.9 1.884-1.987 3.14-.159 2.326.621 5.061.904 7.37.478 3.903 1.271 7.837 1.127 11.774-.357 9.814-.744 19.626-1.171 29.436-.167 3.837.467 7.165 1.125 10.98l1.475 8.53c.267 1.53.24 1.344 0 3.088-.693 5.095-1.835 10.322-2.101 15.455-.228 4.338.731 8.99 1.123 13.315.156 1.749.315 3.5.473 5.25.061.668 1.582.494 1.928.456 7.586-.828 15.172-1.66 22.755-2.486.812-.089 2.654-.613 2.666-1.69l.083-8.462c.019-1.76.038-3.518.053-5.28.008-.642.01-1.285.02-1.928.005-.262.035-.947 0-.54.445-5.7 1.466-11.362 2.022-17.052.552-5.634 1.101-11.36 1.313-17.015.213-5.645-.366-11.4-.552-17.046-.027-.83-.032-.48.095-1.639l.609-5.503c.186-1.702.374-3.408.562-5.114 3.013 2.72 6.036 5.442 9.227 7.934 3.266 2.55 6.528 5.1 9.795 7.65 1.053.824.949.464 1.07 1.378.243 1.858.444 3.723.666 5.581.797 6.666 1.41 13.212 1.803 19.91.4 6.735.355 13.35.262 20.101-.09 6.77 1.06 13.45 1.867 20.167.038.326.63.461.85.487l9.112 1.04c.8 5.216 1.852 10.46 2.361 15.708.544 5.616.282 11.31.81 16.927 1.055 11.181 3.7 22.243 4.453 33.463.401 5.97.002 12.089-.01 18.076 0 1.021 2.866.26 3.153.131 3.024-1.364 6.868-2.81 11.533-4.336 6.431-.99 11.61-1.486 15.536-1.486.473 0 1.714-4.07 1.758-4.753.381-5.402 1.04-10.856 1.144-16.269.106-5.4-.858-10.845-1.04-16.245-.283-8.575.156-16.47.782-24.7.977 5.076 1.943 10.142 2.038 15.315.074 4.193-.057 8.448.23 12.63.185 2.732.973 5.497 1.496 8.182 1.363 7.053 2.3 13.928 3.086 21.077.776 7.063 1.61 14.12 2.434 21.177.101.86 2.177.417 2.55.328 4.38-1.047 8.79-2.006 13.148-3.144 4.052-1.057 7.96-3.41 11.763-5.13 1.173-.532 3.46-1.157 4.068-2.36.837-1.654.87-4.303 1.238-6.108.704-3.48 2.222-7.482 1.88-11.062-.486-5.08-1.07-10.158-1.459-15.245-.057-.75-.061-.184-.032-.653.058-.967.235-1.941.351-2.901l1.053-8.694c.43-3.534.833-7.067 1.227-10.606.429-3.865 1.4-8.03 1.167-11.924-.3-5.087-.787-10.214-1.332-15.28-.33-3.048.668-8.327 1.048-12.12.347-3.468.53-6.7.487-10.182-.036-3-.072-6-.11-8.998-.011-.914-.036-1.829-.034-2.744.004-.74-.03.012.027-.852.345-5.062.818-10.121 1.216-15.182.292-3.747.036-7.565.004-11.318z" fill="#000"/><path d="m129.841 14.163 8.294 14.744 6.271 15.603 6.351 15.578 8.112 14.738 7.201 15.179 8.886 14.33 6.507 16.187 4.068 16.869 2.998 17.017 1.234 17.235-.319 17.275-2.755 17.036-1.543 17.387-7.918 15.548-7.571 15.391-11.053 13.161-14.573 9.702-17.459-.392-15.093-5.568-12.869-9.305-9.858-12.611-8.167-14.148-2.977-16.112-3.212-15.967-2.556-16.218 1.298-16.378-7.442-18.544-7.194-18.579-9.256-19.091-9.025-15.726-6.544-16.837-9.175-15.531-7.724-16.254-6.554-16.757-7.139-15.89 13.37-7.533 15.607-3.998 16.448-1.414 16.032 4.123 16.271 2.099 16.298 1.96 16.273 2.192z" fill="#c58fff"/><path d="m186.418 187.77c-.036 1.93-.034 1.892-.353 3.86-.518 3.214-1.038 6.426-1.558 9.64-.687 4.226-1.136 8.374-1.514 12.64l-.803 9.057c-.03.315-.009.706-.091 1.015-.112.423.1-.368-.06.042-.348.901-.902 1.772-1.34 2.632-4.706 9.24-9.076 18.696-13.924 27.857-.068.129-.089.178-.09.197-.115.14-.23.277-.343.406-.854.997-1.69 2.014-2.533 3.016-2.108 2.512-4.216 5.02-6.324 7.53-.475.564-.938 1.153-1.433 1.705.137-.22-.985.728-1.321.952l-7.927 5.279-3.264 2.171c-4.795-.171-9.63-.467-14.402-.298-.19.008-.279.023-.332.04-.048-.046-.169-.118-.429-.235-1.418-.642-2.962-1.093-4.42-1.632-3.087-1.14-6.168-2.31-9.265-3.416-.366-.133-.473-.157-.499-.159.023 0 .057-.023-.256-.25-1.181-.858-2.365-1.712-3.55-2.568-2.697-1.95-5.422-3.865-8.092-5.852-1.345-1-2.231-2.406-3.265-3.727l-6.412-8.203c-2.586-3.307-5.336-8.874-7.837-13.208-2.466-4.27-2.588-9.841-3.474-14.638-1.822-9.865-3.886-19.648-5.448-29.563-.32-2.023-.911-4.197-.939-6.252-.044-2.89.465-5.898.693-8.778.178-2.23.958-5.19.586-7.408-.334-2.019-1.708-4.266-2.47-6.154-4.086-10.189-7.767-20.607-12.063-30.705-3.77-8.858-8.302-17.516-13.09-25.863-2.479-4.315-4.971-8.393-6.768-13.019-1.785-4.59-3.142-9.771-5.654-14.025-2.854-4.831-5.957-9.586-8.592-14.542-2.626-4.943-4.826-10.16-7.228-15.217-2.146-4.523-3.744-9.35-5.567-14.01-1.744-4.456-3.727-8.784-5.69-13.151l-2.73-6.08c3.687-2.077 7.372-4.155 11.06-6.231.652-.161 1.605-.504 1.76-.542l8.58-2.198c1.111-.286 2.221-.57 3.331-.852.074-.02.148-.043.222-.06 2.07.064 4.328-.405 6.366-.581 2.753-.235 5.507-.474 8.264-.71.057-.005.12-.005.184-.009-.03-.04-.059-.084-.059-.152 0 .027.154.078.372.135.148-.006.298-.017.434-.053.454-.124.228.045-.104.14.598.148 1.37.31 1.467.336 4.577 1.176 9.172 2.651 13.808 3.55 4.647.898 9.47 1.23 14.163 1.835 7.395.958 14.81 1.742 22.199 2.738 4.704.634 9.66 1.856 14.414 1.725 4.75-.131 9.504-.288 14.256-.433l7.417 13.184c2.24 3.987 3.617 8.583 5.321 12.818 3.265 8.125 6.23 16.398 10.457 24.074 2.18 3.956 4.495 7.859 6.431 11.941 2.119 4.465 4.003 9.163 6.415 13.476 2.655 4.744 6.04 9.097 8.613 13.888 2.237 4.171 3.67 8.977 5.438 13.37 1.638 4.072 2.49 8.269 3.522 12.542 1 4.158 1.932 8.245 2.677 12.454 1.71 9.717 3.067 19.303 3.344 29.203.14 5.09-.188 10.235-.281 15.326m-168.065-177.674c.36-.199.262-.14 0 0m174.074 155.154c-.702-9.829-1.802-19.419-3.929-29.07-1.19-5.402-2.283-11.024-3.93-16.303-1.552-4.985-3.922-9.835-5.871-14.68-1.816-4.51-4.95-8.57-7.503-12.69-2.544-4.104-4.48-8.425-6.554-12.79-4.07-8.582-9.246-16.587-12.83-25.38-1.805-4.422-3.616-8.843-5.397-13.277-1.83-4.551-3.319-9.482-5.674-13.79-2.554-4.673-5.224-9.286-7.837-13.927-.313-.56-1.263-.627-2.324-.446l-13.962.427c-.467.013-.945.045-1.419.053-.074-.046-1.107-.173-1.4-.213l-8.883-1.199c-7.691-1.038-15.406-1.88-23.104-2.869-4.922-.634-9.909-1.087-14.805-1.905.004-.004-.013-.01-.09-.032-.274-.067-.551-.135-.824-.209-1.11-.31-2.235-.575-3.349-.862l-9.122-2.348c-1.41-.362-2.669-.768-4.134-.706-2.452.105-4.917.423-7.363.634-4.108.353-8.222.488-12.222 1.514l-9.819 2.513c-2.059.529-4.175.916-6.063 1.918-4.484 2.39-8.863 4.996-13.29 7.489-.176.099-.858.61-.706.953 4.298 9.569 8.391 19.095 12.213 28.865 3.269 8.355 7.174 16.605 11.738 24.33 2.41 4.078 5.436 8.144 7.16 12.573 1.989 5.12 3.657 10.533 6.018 15.49 2.33 4.887 5.463 9.521 8.157 14.217 2.262 3.943 4.086 8.148 6.07 12.236 4.274 8.823 7.668 17.846 11.262 26.971 2.116 5.372 4.298 10.715 6.448 16.072.575 1.434 1.004 2.224.886 3.717-.264 3.33-.529 6.662-.79 9.994-.145 1.782-.479 3.668-.356 5.454.197 2.84.907 5.742 1.351 8.554.742 4.715 1.565 9.366 2.505 14.047.941 4.679 1.88 9.357 2.747 14.05.61 3.307 1.222 6.614 1.833 9.92.294 1.595.96 2.614 1.784 4.043 2.444 4.235 4.594 8.89 7.609 12.748 2.01 2.57 4.02 5.138 6.025 7.707 1.098 1.401 2.102 3.055 3.468 4.198 2.272 1.903 4.862 3.516 7.264 5.254 1.789 1.292 3.58 2.941 5.567 3.907 2.213 1.08 4.733 1.747 7.044 2.6 2.567.948 5.197 2.227 7.854 2.897 1.838.465 3.994.216 5.876.26 3.378.074 6.759.15 10.137.226 2.472.055 4.706.003 6.903-1.384 2.476-1.563 4.877-3.248 7.315-4.871 2.224-1.48 4.628-2.842 6.738-4.487 1.524-1.184 2.679-2.955 3.916-4.427 3.065-3.651 6.775-7.135 8.892-11.44 2.27-4.615 4.503-9.254 6.818-13.848 1.315-2.606 2.65-5.203 3.975-7.805 1.169-2.296 2.873-4.732 3.664-7.188.539-1.68.397-3.808.55-5.554.3-3.366.6-6.73.896-10.096.182-2.034.217-2.25.57-4.42.55-3.404 1.1-6.806 1.652-10.208 1.452-8.983 1.291-18.345.645-27.408" fill="#000"/><path d="m46.758 5.744c-.12-.03-.23-.057-.33-.087-.108.006-.211.013-.315.017.116.16.402.14.645.07m17.482 103.056 2.007-1.034c.852-.437 1.746-1.496 1.063-2.454-.666-.935-15.765 2.779-20.543 5.24-.67.344 1.731 2.44 1.063 2.783-.852.438-1.746 1.497-1.063 2.455.666.936 2.228.858 3.133.39zm10.215 22.555c.74-.205 1.478-.412 2.218-.621.64-.178 2.226-.746 2.013-1.675-.212-.902-2.043-.594-2.582-.444-5.169 1.449-12.87 2.119-17.727 2.119-.97 0 .74 2.636 0 2.843-.639.18-2.229.751-2.013 1.675.21.905 2.042.594 2.581.444 5.17-1.446 10.34-2.892 15.51-4.34z" fill="#000"/><path d="m215.04 4.385-10.15 13.586-8.334 14.097-6.442 15.06-5.582 15.321-6.008 15.089-4.123 15.713-5.036 15.594-.856 16.336-1.837 16.288 2.687 17.34-1.548 17.491 1.459 17.398 3.778 17.072 3.839 16.89 4.474 16.861 10.624 13.744 12.07 12.495 16.52 5.636 17.588 2.865 16.801-5.954 12.584-12.126 10.628-14.244 1.62-17.442-2.081-16.095-1.645-16.201-1.757-16.174-1.074-16.306 2.895-13.364-2.7-13.506 13.269-7.625 5.219-13.76-4.055-13.23 9.599-9.267 3.907-13.385 3.11-15.112 8.3-13.533 10.013-12.361 7.873-13.774 8.024-12.757-13.349-6.533-15.324-4.106-15.93-.152-15.766 2.114-15.668 2.715-15.797 2.07-16.041.632z" fill="#c58fff"/><path d="m319.966 39.572c-2.042 2.998-4.64 5.734-6.924 8.554-4.258 5.26-8.017 11.095-11.218 17.061-1.492 2.785-1.634 6.723-2.266 9.795-.575 2.802-1.106 5.57-1.905 8.31-.757 2.591-1.514 5.183-2.273 7.775-.251.863-.712 1.852-.799 2.749-.008.082 0 .12.004.18-3.27 2.595-6.141 5.934-9.148 8.834-.287.282-.782.74-.632 1.225.674 2.205 1.351 4.41 2.028 6.615l1.393 4.547c.152.5.308.998.459 1.5.078.255.093.492.118.467-.351 2.22-1.856 4.77-2.636 6.828-.753 1.986-1.508 3.973-2.26 5.96-4.115 2.362-8.227 4.726-12.341 7.091-.533.305-1.34.876-1.197 1.605.552 2.755 1.104 5.51 1.654 8.264.291 1.463.51 2.977.883 4.421.045.17.079.362.11.548-.057.076-.14.824-.181 1.012-1.091 5.04-2.823 10.098-2.485 15.271.694 10.512 1.753 20.912 2.816 31.392.527 5.2.946 10.425 1.61 15.61.44 3.447.892 6.89 1.336 10.335.175 1.353.291 2.73.526 4.074.186 1.053.142-.01.042 1.015-.332 3.366-.628 6.736-.94 10.101l-.447 4.833c-.042.436-.12.888-.124 1.326 0 .165.006.252.014.307-1.203 2.357-3.425 4.573-4.998 6.678-1.788 2.398-3.577 4.793-5.365 7.189-.021.031-.026.04-.036.057-.402.401-.818.786-1.227 1.177-1.325 1.281-2.65 2.558-3.976 3.837-1.55 1.49-3.093 2.981-4.639 4.47-.165.158-1.634 1.34-2.18 1.966-.444.15-.885.31-1.325.467-1.933.687-3.867 1.372-5.801 2.055-2.269.806-4.538 1.61-6.808 2.415-5.212-.878-10.436-1.905-15.677-2.546-.222-.027-.334-.032-.404-.032-.072-.033-.177-.078-.372-.148-1.395-.509-2.816-.964-4.224-1.441-3.306-1.127-6.615-2.258-9.922-3.387-.467-.159-.962-.288-1.416-.482-.051-.022-.053-.02-.083-.032-.77-.64-1.444-1.501-2.13-2.212l-7.453-7.714c-3.5-3.624-6.415-7.704-9.495-11.687l-2.708-3.506c-.182-.234-.413-.475-.573-.735.004-.036-.013-.125-.072-.339-.816-2.98-1.586-5.979-2.379-8.966-1.266-4.778-2.45-9.535-3.545-14.353-1.102-4.844-2.205-9.687-3.277-14.537-1.102-4.969-2.55-9.94-2.975-15.02-.3-3.556-.598-7.112-.896-10.666-.104-1.239-.22-2.477-.311-3.718-.01-.132-.02-.296-.025-.383.019-.302.052-.607.08-.905.296-3.378.598-6.757.896-10.133.188-2.155.658-4.472.54-6.639-.307-5.725-2.193-11.364-2.643-17.08-.002-.032-.002-.043-.007-.06.02-.327.074-.653.11-.974.19-1.696.383-3.391.575-5.085.356-3.175.774-6.347 1.074-9.524.49-5.241.512-10.531.852-15.78.117-1.795.852-3.464 1.404-5.172 1.068-3.302 2.133-6.605 3.201-9.905 1.592-4.928 2.719-10.023 4.032-15.034 1.3-4.962 3.558-9.683 5.454-14.444 3.812-9.569 7.178-19.239 11.231-28.719.541-1.266 1.12-2.526 1.628-3.81.135-.34.171-.456.175-.495.032-.03.112-.141.33-.5 1.761-2.89 3.446-5.83 5.17-8.743 2.6-4.397 5.515-8.344 8.579-12.448.793-1.061 1.585-2.123 2.38-3.184 3.315 1.133 6.63 2.266 9.943 3.402 1.356.463 2.607.993 4.04 1.034 2.37.071 4.791-.189 7.157-.282 8.453-.332 16.732-1.186 25.108-2.46 8.38-1.275 16.679-2.85 25.083-3.977 1.894-.256 3.786-.514 5.68-.764-.209.034.47-.036.897-.023 1.226.034 2.459.021 3.685.034 2.92.03 5.84.055 8.76.082.659.009 1.325 0 1.989.022.3.093.61.162.917.245l8.787 2.353 4.063 1.09c.29.077.586.151.878.233.01.011.031.026.084.051 4.074 2.01 8.165 3.996 12.25 5.994-3.27 5.186-6.588 10.34-9.632 15.664-1.871 3.275-3.548 6.81-5.675 9.924zm-67.26 233.045c-.096.118-.166.22-.157.274-.015-.099.057-.19.156-.274zm.097-.08c.492-.32 1.45-.447.344-.123-.116.033-.228.082-.344.122zm-20.104-264.389c.203.006.404.048.495.198-.05-.08-.284-.148-.495-.198zm96.047-2.586c-3.59-1.662-7.814-2.304-11.62-3.328-1.699-.454-3.464-1.129-5.202-1.393-1.812-.277-3.778-.08-5.6-.1-4.121-.037-8.413-.447-12.517.051-9.055 1.1-18.019 2.535-27.004 4.091-3.514.61-7.026 1.077-10.563 1.542-2.647.346-5.298.664-7.94 1.038-.235.034-.472.059-.707.093-.74.023-1.478.057-2.218.086-3.257.13-6.52.258-9.78.385-.898.036-2.095-.103-3.008.093-.095-.02-.178-.042-.22-.059-4.873-1.888-9.924-3.395-14.87-5.089-.128-.044-.27-.046-.403-.076-.192-.053-.38-.087-.562-.106-.07-.006-.138-.014-.205-.017-.022-.002-.045-.006-.062-.006-.141-.004-.308.025-.46.036-.193.013-.388.009-.58.04-1.142.186-2.387.7-3.019 1.548-4.68 6.266-9.41 12.34-13.391 19.07-1.882 3.182-4.093 6.321-5.6 9.702-2.028 4.535-3.956 9.125-5.868 13.71-2.708 6.51-4.788 13.284-7.397 19.838-1.505 3.778-3.307 7.554-4.529 11.429-1.414 4.486-2.397 9.152-3.592 13.7-1.744 6.657-5.234-4.404-5.596 2.486-.474 9.051-1.254 35.508-2.27 44.512-.381 3.4.063 6.138.591 9.554.442 2.842.882 5.683 1.322 8.525.118.771.256 1.54.357 2.313.021.17.038.234.05.258-.008.067-.018.16-.031.334-.368 5.031.862 11.118.42 16.144-.292 3.304.192 6.575.47 9.875.304 3.605.293 7.372 1.075 10.911 1.087 4.91 2.817 8.958 3.906 13.867 1.489 6.727 6.045 22.62 7.812 29.278 1.247 4.702-3.44.407-1.763 4.972.378 1.025 1.09 1.789 1.763 2.662 1.664 2.15 3.328 4.304 4.99 6.454 2.016 2.61 3.942 5.167 6.228 7.535l5.8 6.002c1.327 1.375 2.625 3.149 4.156 4.305.96.725 2.325.97 3.452 1.353 2.738.937 5.476 1.869 8.214 2.803 3.105 1.06 5.922 1.981 9.146 2.506 4.704.765 9.47 1.856 14.213 2.315 1.859.18 3.497-.527 5.212-1.131l7.621-2.704c3.248-1.148 6.975-1.859 9.504-4.296 3.668-3.537 7.355-7.053 11.006-10.61 2.575-2.509 4.541-5.767 6.687-8.64 1.95-2.613 4.91-5.228 5.218-8.562.467-5.03.998-10.06 1.402-15.098.285-3.552-.742-7.408-1.197-10.922-.97-7.503-1.67-15.025-2.463-22.55-.858-8.175-1.76-16.3-2.302-24.503-.157-2.385-.258-4.78-.472-7.163-.012-.15-.02-.302-.03-.455.007-.025.011-.03.022-.101.137-.934.404-1.867.605-2.79.587-2.72 1.177-5.44 1.767-8.164.283-1.315.527-2.232.29-3.54-.706-3.92-1.548-7.82-2.339-11.724 2.282-1.309 4.56-2.62 6.84-3.93 1.928-1.108 5.32-2.303 6.355-4.396 1.613-3.256 2.634-6.947 3.926-10.344.349-.926 1.085-2.134 1.184-3.13.093-.917-.471-2.002-.736-2.86-1.055-3.435-2.107-6.871-3.16-10.304 2.575-2.487 5.15-4.973 7.725-7.457.778-.753 1.463-1.345 1.86-2.36.738-1.907 1.167-4.004 1.74-5.966.831-2.85 1.766-5.674 2.364-8.583.863-4.197 2.226-8.557 2.636-12.819.02-.182.066-.387.117-.564.004-.013.002-.013.002-.02.264-.496.607-.978.9-1.452 1.195-1.949 2.39-3.9 3.588-5.85 1.48-2.41 2.829-4.92 4.611-7.12 2.766-3.415 5.533-6.831 8.296-10.248 1.78-2.194 2.998-4.873 4.396-7.32 3.9-6.817 8.036-13.441 12.218-20.09.378-.607.28-1.083-.377-1.406-4.13-2.023-8.23-4.135-12.404-6.07z" fill="#000"/><path d="m283.759 103.27c.596.287 1.196.574 1.793.864.936.452 2.397 0 3.239-.482.602-.345 7.6-2.958 6.17-2.958-5.01 0-19.395-5.234-19.99-5.52-.938-.452-2.4-.002-3.24.48-.602.345-1.41 1.135-.457 1.596zm-12.924 37.375c.753.154 1.268-1.577 2.02-1.423 1.028.21 2.438-.239 3.248-.87.765-.595.533-1.136-.353-1.316-5.286-1.08-10.571-2.16-15.859-3.237-.752-.156-1.503-.308-2.258-.463-1.025-.209-2.437.24-3.25.872-.762.594-.53 1.135.354 1.315 5.285 1.08 10.813 4.044 16.098 5.122zm-145.704 72.735c-1.456-5.687-2.976-11.681-5.71-16.895-1.734-3.306-3.247-6.93-5.277-10.063-1.332-2.057-3.903-3.637-5.744-5.222-2.072-1.782-4.184-4.22-6.633-5.474-3.213-1.647-6.776-2.824-10.11-4.213-2.685-1.119-4.638-1.605-7.535-1.922l-11.099-1.22c-2.345-.256-4.65 3.137-1.554 3.476 3.057.338 6.118.674 9.178 1.01 1.6.176 3.213.423 4.818.529.165.01.476.082.628.112.26.105.518.213.772.319l10.53 4.39c.531.221 1.087.416 1.603.667.008.004.01.004.017.009l.044.038c1.193.938 2.315 1.993 3.465 2.983 2.324 2.004 5.256 3.922 7.286 6.245-.02.009.057.157.186.43.273.579.598 1.14.896 1.708.996 1.904 1.996 3.807 2.994 5.708.73 1.395 1.459 2.788 2.19 4.18.114.213.23.435.343.653.02.127.226.75.264.89.979 3.683 2.186 7.315 3.28 10.966.19.639.344 1.303.572 1.928.097.258.16.607.186.662.05 1.366-.177 2.82-.254 4.171-.18 3.182-.357 6.362-.537 9.542-3.181 1.353-6.365 2.706-9.547 4.061-.637.27-1.39.507-2.024.846-1.94-.045-4.03.372-5.951.545-7.116.637-14.02 1.859-21.061 3.104-2.927.518-1.98 3.814.885 3.306l11.578-2.05c.429-.074.86-.153 1.291-.227.167-.006.842-.071 1.045-.09l7.188-.645c1.708-.15 3.48-.182 5.173-.461 1.313-.216 2.54-.867 3.762-1.387 3.657-1.554 7.317-3.11 10.972-4.666.596-.254 1.258-.897 1.296-1.586.178-3.122.351-6.245.529-9.368.125-2.27.636-4.767.065-6.99m157.627 19.361c-.59-.45-2.651.374-3.205.617-4.385 1.922-8.77 3.844-13.154 5.768-.373.163-.776.315-1.174.48-.034.004-.065.012-.1.017l-8.388 1.237c-1.918.283-3.867.5-5.778.843v-.002c-.24-.19-.918-.27-1.197-.353-1.226-.364-2.452-.723-3.677-1.085-2.938-.869-5.875-1.738-8.816-2.606-1.746-.516-1.577-.46-3.076-1.368-2.522-1.533-5.044-3.066-7.569-4.599-1.198-.73-4.368-2.044-4.99-3.006-.608-.947-.625-4.241-.838-5.588-.468-2.968-.94-5.937-1.406-8.905-.605-3.822.06-7.617.378-11.47.205-2.492.228-5.084.624-7.553.133-.844.905-2.427 1.423-3.645 1.323-3.11 2.647-6.218 3.972-9.328.582-1.37 1.02-2.704 1.935-3.865 3.222-4.095 6.609-8.074 9.92-12.1 4.27-1.682 8.536-3.367 12.807-5.05 6.93 2.666 13.863 5.33 20.795 7.996.89.342 2.087-.006 2.943-.32.163-.056 2.064-.946 1.398-1.202l-18.55-7.131c-2.38-.916-3.863-1.785-6.444-.895-3.258 1.123-6.442 2.54-9.647 3.806-2.201.867-5.715 1.581-7.484 3.245-2.208 2.072-4.007 4.882-5.924 7.218-1.61 1.962-3.71 3.945-4.99 6.144-1.68 2.886-2.719 6.38-4.025 9.452-.899 2.11-2.275 4.398-2.704 6.658-.637 3.36-.58 7.004-.859 10.408-.188 2.281-.66 4.71-.459 6.992.324 3.676 1.165 7.376 1.74 11.02.292 1.847.047 4.802 1.616 5.95 3.019 2.205 6.507 3.952 9.702 5.892 1.818 1.108 3.41 2.203 5.44 2.804 3.839 1.135 7.68 2.268 11.52 3.404 2.19.647 3.51.93 5.752.6l11.941-1.759c6.17-.909 11.717-4.027 17.4-6.518.852-.374 1.702-.748 2.554-1.118.704-.311 1.226-.6.594-1.085" fill="#000"/><path d="m91.474 173.547-8.362 11.808-11.852 7.116c-.77.463-1.803 1.38-1.089 2.35.634.861 2.281.834 3.116.333 3.726-2.237 7.45-4.474 11.174-6.708.471-.286.947-.57 1.419-.853.763-.458 1.035-.85 1.511-1.522l4.33-6.114 3.592-5.074c1.68-2.376-2.63-3.047-3.84-1.336m185.107.904c-.249-.934-1.993-.6-2.587-.471l-12.732 2.822c-2.101-.41-4.203-.818-6.306-1.23-1.54-.298-3.08-.599-4.622-.9-.556-.107-1.114-.248-1.674-.326-.047-.007-.14-.024-.241-.036-.077-.043-.157-.085-.218-.131-.459-.337-.945-.639-1.417-.956l-3.9-2.634-5.86-3.952c-.876-.594-2.098-.395-3.03-.002-.362.152-2.108 1.184-1.246 1.765 2.541 1.715 5.08 3.43 7.622 5.144 1.862 1.256 3.613 2.85 5.841 3.284 3.652.712 7.305 1.425 10.954 2.135 1.288.252 2.29.495 3.613.247 1.083-.203 2.157-.477 3.23-.716l10.567-2.34c.64-.145 2.25-.798 2.007-1.703m-31.461 265.733c.577-9.174.85-18.165.844-27.356-.002-3.661-.899-6.88-1.744-10.458-.842-3.542-1.487-7.163-2.747-10.584-3.15-8.554-6.368-17.064-9.695-25.548-1.3-3.315-2.956-6.144-4.778-9.218-1.842-3.11-3.406-6.99-6.032-9.524-3.556-3.432-7.02-6.992-10.683-10.309-3.01-2.727-6.812-4.8-10.159-7.089-1.34-.92-2.683-1.837-4.023-2.755-1.979-1.353-7.495 1.444-4.787 3.296l11.32 7.747c.638.437 1.272.883 1.915 1.313.049.03.055.033.085.053.097.095.198.188.294.285 1.757 1.772 3.594 3.47 5.389 5.2 2.551 2.464 5.275 4.625 7.08 7.675 2.334 3.94 4.93 7.819 7.05 11.88-.13-.207.29.765.388 1.015.44 1.118.88 2.237 1.317 3.355l3.146 8.02c1.251 3.185 2.42 6.4 3.605 9.61 1.23 3.347 2.682 6.66 3.507 10.133 1.118 4.72 2.241 9.436 3.355 14.157.009.038.015.053.021.076 0 .15.002.303 0 .45-.006 1.113.005 2.225.005 3.339l.006 8.774c.002 3.382-.201 6.708-.412 10.086-.552 8.747-1.277 17.512-1.63 26.267-.155 3.814.298 7.708.488 11.516.104 2.13.326 4.286.317 6.417-.004.49-.004-.461-.025-.25-.015.21-.032.425-.066.634-.16 1.045-.218 2.115-.328 3.167-.938 9.011-1.708 17.99-2.353 27.03-.505 7.051.455 14.144-.07 21.189-.665 8.977-1.336 17.953-2.014 26.928-.087 1.142-.171 2.281-.256 3.423-7.774 2.46-15.41 5.091-23.045 7.916-1.158-15.903-2.824-31.74-3.947-47.646-.5-7.076-2.482-13.96-3.13-21.008-.762-8.292-.96-16.664-1.557-24.971-.29-4.05-.42-8.12-1.078-12.131l-2.501-15.216c-.41-2.512-6.56-1.01-6.125 1.64 1.26 7.669 2.71 15.26 3.266 23.011.64 8.905 1.201 17.81 1.717 26.724.414 7.082 2.391 13.964 3.1 21.01.832 8.294 1.154 16.626 2.031 24.916.973 9.201 1.634 18.39 2.275 27.62.129 1.829-1.5 1.23 3.159-.538 4.66-1.768 16.653-3.712 17.075-3.845l4.8-1.493 7.471-2.321c.911-.284 2.468-1.731 2.557-2.9.604-7.994 1.209-15.992 1.803-23.988.27-3.651.732-7.332.677-10.996-.072-4.979-.3-9.985-.218-14.964.127-7.455.975-14.996 1.748-22.419.419-4.032 1.269-8.25 1.155-12.307-.146-4.94-.493-9.884-.736-14.818-.023-.45-.053-.907-.066-1.362.028-.17.087-1.205.1-1.386.165-2.717.334-5.434.499-8.149.211-3.441.42-6.883.64-10.323zm-92.182-125.497c-7.182.205-14.368.406-21.552.611l-3.104.087c-1.243.038-3.217.922-3.418 2.31-.224 1.523 1.714 1.745 2.75 1.716 7.186-.201 14.37-.406 21.556-.611l3.104-.087c1.241-.034 3.216-.92 3.419-2.309.222-1.522-1.72-1.746-2.755-1.717m-9.178 98.916c.134 6.892.301 13.772.544 20.66.25 7.148.286 13.176.324 20.785.036 6.738.355 13.473.575 20.21.025.77 1.558.729 1.996.697 7.653-.586 15.308-1.171 22.962-1.755.748-.06 2.53-.626 2.602-1.59.5-6.877 1.106-13.712 1.134-20.605.031-7.909.372-15.674.87-23.567.392-6.26.299-12.54.643-18.803.404-7.406.95-14.8 1.269-22.214.353-8.114.738-16.228 1.122-24.343.093-1.932-4.522-1.036-4.598.554-.702 14.717-1.304 29.432-2.241 44.134-.402 6.334-.334 12.687-.657 19.023-.375 7.318-.965 14.56-.992 21.886-.036 8.218-.869 23.377 0 22.846-7.656.586-9.047.932-16.7 1.516.664.234-3.48.755-2.814.988l-.338-10.297c-.062-1.866-.119-3.735-.186-5.606-.047-1.362-.03-.465-.036-1.87-.034-6.574.012-13.152-.22-19.725-.48-13.803-.668-27.592-1.516-41.379-.423-6.9-.8-13.8-1.188-20.706-.087-1.535-4.698-.581-4.596 1.233.714 12.628 1.797 25.285 2.042 37.928z" fill="#000"/><path d="m149.876 474.944-1.937 14.123 3.142 13.546 13.277 3.778 13.575-11.461-11.505-12.049.089-8.52" fill="#5cffe4"/><path d="m180.07 494.036-9.667-10.123c-.376-.395-1.089-1.465-1.626-1.729.017-.306-.04-.725-.038-.928.024-2.398.051-4.793.076-7.188.02-1.871-4.577-.903-4.592.585-.025 2.398-.052 4.793-.076 7.19-.006.648-.143 1.432.197 1.984.362.592 1.072 1.122 1.548 1.621 3.124 3.273 6.251 6.546 9.376 9.817l-11.16 9.42c-3.605-1.025-7.212-2.055-10.82-3.08l-2.663-11.478c-.118-.514-.268-1.032-.361-1.554.002-.025.002-.04.006-.072.05-.306.087-.615.129-.926l.979-7.122c.264-1.933.528-3.867.795-5.802.243-1.771-4.381-.957-4.592.586-.565 4.106-1.125 8.211-1.692 12.317-.148 1.083-.3 1.911-.053 2.968.54 2.334 1.083 4.67 1.626 7.007.442 1.9.882 3.799 1.322 5.7.09.389.57.528.888.62 4.338 1.234 8.682 2.767 13.088 3.724 2.254.49 3.747-1.08 5.29-2.387 2.286-1.926 4.569-3.852 6.85-5.78l4.871-4.112c.353-.3.694-.846.298-1.258" fill="#000"/><path d="m130.778 328.991-1.296 18.053-9.465 15.375-16.047 7.928-17.45-4.049-12.44-13.004-5.298-17.189 1.522-17.86 8.744-15.742 16.229-7.912 17.571 4.076 12.528 13.06z" fill="#5cffe4"/><path d="m127.212 347.255c-.157.296-.379.594-.542.857l-7.205 11.7c-.378.619-.867 1.249-1.173 1.91-.002.007-.004.007-.006.013-1.123.42-2.457 1.394-3.328 1.825l-10.721 5.296c-3.286-.765-6.575-1.526-9.865-2.29-1.877-.435-3.761-.968-5.658-1.313-.099-.019-.173-.033-.243-.05-.27-.334-.625-.643-.91-.941l-9.403-9.829c-.516-.54-1.059-1.063-1.551-1.622-.208-.236-.265-.287-.28-.293-.668-1.396-.962-3.123-1.416-4.595-1.237-4.01-2.803-8.05-3.744-12.143-.034-.148-.053-.197-.064-.2 0-.027 0-.044-.002-.084-.019-.653.116-1.353.171-2.004.203-2.38.406-4.759.611-7.14.19-2.255.385-4.515.578-6.771.042-.493.036-1.017.129-1.503-.036.181-.113.158.173-.381 2.061-3.911 4.3-7.742 6.446-11.607l1.419-2.552c.076-.137.129-.226.184-.321 1.209-.434 2.788-1.577 3.625-1.987 3.52-1.717 7.04-3.434 10.563-5.15l9.66 2.243c1.964.454 3.926.995 5.905 1.372.14.023.251.05.34.076.254.287.541.558.801.826l9.578 9.98 1.496 1.558c.286.3.345.37.356.38.674 1.393.976 3.13 1.437 4.6l3.89 12.438c-.26 3.61-.518 7.218-.776 10.827-.143 2.004-.433 4.057-.435 6.066 0 .14-.078.73-.04.81zm2.319-30.21c-.858-2.746-1.233-5.393-3.23-7.47-3.328-3.472-6.66-6.944-9.99-10.413-.742-.772-1.211-1.406-2.222-1.76-1.632-.568-3.467-.805-5.152-1.196-3.994-.926-8.104-2.283-12.172-2.826-1.518-.201-2.657.427-3.957 1.06l-6.31 3.077c-2.209 1.076-4.418 2.154-6.627 3.233-.983.477-2.3.928-2.994 1.786-.979 1.214-1.628 2.928-2.38 4.286-1.267 2.277-2.529 4.551-3.793 6.828-.797 1.436-1.825 2.888-2.45 4.41-.39.946-.37 1.95-.457 2.982-.404 4.727-.808 9.452-1.21 14.177-.25 2.91 1.244 5.867 2.09 8.616l2.22 7.198c.306.998.487 2.275 1.063 3.165.763 1.189 2.133 2.233 3.103 3.248l5.385 5.628c1.205 1.258 2.362 2.81 3.727 3.896.787.626 1.702.734 2.683.96l14.104 3.273c3.345.776 5.53-.742 8.495-2.207 3.786-1.871 7.67-3.622 11.389-5.626 1.27-.685 4.564-5.953 5.824-7.997l3.68-5.979c.481-.784.936-1.402 1.107-2.285.858-4.396 2.762-21.855 4.312-26.955m52.446 111.559c4.19.665 8.489.511 12.723.632 8.664.245 18.077-1.903 26.675-3.074 5.598-.764 11.18-1.69 16.77-2.535 1.19-.18 2.666 1.072 2.822-.406.148-1.42-1.736-3.3-2.822-3.138-9.212 1.394-18.165 4.15-27.45 4.823-2.443.177-4.9.287-7.335.533-.613.06 1.044.014.43-.005-.288-.008-.576-.014-.863-.023-1.334-.046-2.67-.078-4.007-.114-4.376-.125-8.936.114-13.279-.465-5.62-.744-11.211-1.778-16.808-2.666-2.72-.431-6.342 3.344-2.245 3.996 5.131.814 10.26 1.63 15.39 2.442z" fill="#000"/><path d="m97.914 359.774c1.937.072 3.8-.577 5.664-1.04.852-.21 1.72-.383 2.558-.633.812-.245 1.537-.744 2.27-1.156l3.223-1.814c.81-.457 1.617-.837 2.129-1.655 1.129-1.804 2.148-3.685 3.222-5.523.573-.979-.504-1.706-1.364-1.795-1.11-.116-2.423.379-3 1.372-1.102 1.882-1.53 3.725-2.108 4.6-.926.523-1.852 1.043-2.778 1.568l-1.962 1.101c-.24.135-1.211.55-1.454.611l-2.159.535c-1.068.264-2.135.53-3.203.795.404-.038-3.15-.269-5.332-.349-1.066-.038-2.493.307-3.002 1.37-.463.975.41 1.761 1.366 1.797 1.976.072 3.953.142 5.93.216z" fill="#000"/><path d="m137.453 321.536-.626-4.527-15.782 3.633-15.727 3.731-15.804 3.37-15.903 2.962-15.886 3.489.865 4.881 7.767-1.955 7.326 9.609 19.626-2.233 2.968-13.104 5.324-1.12 7.693 11.093 19.954-4.924 2.761-13.641z" fill="#c58fff"/><path d="m127.875 335.68c-5.878 1.453-11.757 2.903-17.637 4.353-2.412-3.477-4.822-6.953-7.232-10.431-.356-.512-1.157-.47-1.68-.36l-5.325 1.121c-.58.12-1.141.56-1.273 1.15-.91 4.015-1.822 8.03-2.729 12.047-5.774.655-11.546 1.313-17.317 1.968-2.307-3.025-4.613-6.053-6.92-9.08-.372-.487-1.144-.495-1.679-.358-2.048.516-4.097 1.03-6.143 1.546-.163-.907-.324-1.814-.483-2.721 20.443-4.461 40.973-8.326 61.348-13.12 4.87-1.149 9.753-2.252 14.63-3.37l.334 2.41c-1.347.31-2.691.623-4.034.934-.57.133-1.154.556-1.277 1.152-.858 4.254-1.72 8.505-2.583 12.76zm10.484-19.08c-.104-.76-1.307-.734-1.806-.62-10.484 2.41-20.936 4.975-31.425 7.34-10.444 2.36-20.96 4.208-31.453 6.293-5.429 1.08-10.822 2.365-16.226 3.553-.64.14-1.385.713-1.256 1.438.29 1.628.577 3.254.865 4.882.133.746 1.285.75 1.808.62l6.59-1.66c1.703 2.232 3.405 4.467 5.107 6.702 1.43 1.87.71 5.249 3.112 4.974 6.106-.693 13.39-2.788 19.491-3.482.723-.082 1.518-.454 1.694-1.226.92-4.057 1.837-8.116 2.759-12.176 1.002-.211 2.006-.425 3.01-.634l7.26 10.47c.347.5 1.165.488 1.679.361 6.653-1.643 18.963-3.808 19.53-3.95.566-.14 1.58-2.566 1.698-3.168.861-4.248 1.724-8.495 2.582-12.74 1.404-.328 2.808-.654 4.211-.977l.017-.004c.04-.011.083-.02.123-.03.607-.14.939-.448 1.082-.782.125-.2.208-.413.174-.66-.207-1.505-.417-3.015-.626-4.524z" fill="#000"/><path d="m114.346 304.965-5.571 12.656-13.495 3.704-13.626-.933-13.622.694-11.528 6.511 1.401-13.974 5.876-12.738 8.877-10.85 10.286-4.979 11.017-3.155 11.38 1.447 7.889 7.892 9.382-.935 6.696 7.318 2.127 10.505-1.996 10.467-7.383-6.812z" fill="#5cffe4"/><path d="m106.894 317c-3.387.928-6.77 1.858-10.156 2.789-.186.05-.75.126-1.182.243-.245-.013-.503-.009-.685-.021l-7.305-.502c-3.25-.224-6.243-.279-9.492-.114-2.489.127-4.975.254-7.463.379-1.497.078-2.808.122-4.189.822-2.499 1.27-4.938 2.692-7.37 4.112.265-2.643.531-5.285.795-7.928.11-1.101.057-2.41.353-3.482.334-1.211 1.125-2.44 1.65-3.575.953-2.066 1.904-4.13 2.858-6.193.334-.727.674-1.454 1.004-2.181.125-.275.345-.635.347-.656 2.12-3.021 4.746-5.79 7.08-8.647.38-.46.95-.97 1.256-1.507 1.537-.546 3.102-1.56 4.527-2.25 1.577-.763 3.17-1.5 4.735-2.292.055-.03-.687.174.256-.078.88-.234 1.75-.5 2.626-.752 2.085-.599 4.171-1.195 6.254-1.791.156-.047.448-.085.731-.144.117.004.243.009.332.021 2.135.27 4.267.544 6.4.814.888.114 1.778.262 2.672.34.17.015.343.043.516.066 1.254 1.434 2.73 2.723 4.072 4.066 1.057 1.057 2.275 2.816 3.573 3.575 1.374.803 3.975.095 5.46-.053 1.445-.142 2.889-.288 4.333-.431l5.302 5.795c.26.283.618.59.85.915-.036.04.093.486.125.632.35 1.673.676 3.351 1.017 5.026.287 1.425.75 2.917.883 4.368.017.175.03.249.039.272-.003.026-.005.038-.007.076-.042.548-.215 1.119-.315 1.658l-.784 4.11c-3.816-3.486-7.632-6.966-11.508-10.391-.786-.698-3.061-.085-4.027.695l-.002.004c-.195.155-.326.318-.394.476 0 .004-.006.007-.008.01-1.719 3.908-3.44 7.815-5.159 11.724m-11.837 3.25c.089-.121.233-.174.385-.19-.18.054-.33.115-.385.19m37.664-17.736c-.338-1.662-.37-3.956-1.112-5.474-.607-1.248-2.059-2.368-2.994-3.385-1.156-1.266-2.418-3.283-3.864-4.222-1.24-.81-3.854-.108-5.207.028-1.54.154-3.08.306-4.62.458-2.197-2.2-4.395-4.4-6.594-6.598-1.888-1.886-4.968-1.59-7.512-1.913-2.805-.358-5.505-1.034-8.258-.246-3.277.937-6.64 1.73-9.869 2.825-2.98 1.01-5.824 2.725-8.655 4.093-1.157.56-2.573 1.053-3.506 1.95-.765.735-1.39 1.701-2.061 2.52-2.203 2.693-4.863 5.33-6.75 8.255-1.55 2.393-2.525 5.364-3.715 7.95-1.269 2.744-2.353 4.8-2.651 7.767-.381 3.795-.76 7.592-1.14 11.387-.165 1.64 3.025.672 3.694.294l10.55-5.962c3.708-.186 7.416-.376 11.124-.565 3.647-.186 7.379.368 11.015.618 1.634.112 3.36.427 4.979.089 1.674-.35 3.336-.916 4.983-1.37 2.417-.662 4.835-1.326 7.252-1.99 1.37-.376 2.651-.657 3.376-1.991 1.486-2.736 2.677-5.694 3.87-8.618 4.107 3.66 8.198 7.324 12.242 11.055.935.86 4.172.172 4.432-1.186.64-3.361 1.902-7.053 1.993-10.467.049-1.708-.668-3.639-1.002-5.302" fill="#000"/></g></g></svg>